<?xml version="1.0" encoding="UTF-8" standalone="no"?>
<svg xmlns="http://www.w3.org/2000/svg" version="1.2" baseProfile="tiny" viewBox="0.00 0.00 1000.00 1000.00">
<path fill="#007acc" d="
  M 902.02 149.96
  Q 914.19 172.72 916.03 197.99
  Q 916.70 207.34 916.70 217.67
  Q 916.61 425.65 916.65 624.63
  Q 916.65 643.16 911.10 661.37
  C 896.24 710.17 853.55 744.64 802.73 749.41
  Q 796.59 749.99 782.75 749.99
  Q 546.10 750.02 309.46 749.99
  Q 308.95 749.99 308.60 750.35
  Q 234.86 823.91 159.96 899.04
  Q 150.86 908.17 145.99 910.93
  C 117.57 927.06 83.35 906.85 83.35 874.29
  Q 83.33 542.99 83.35 209.90
  Q 83.35 177.09 98.39 149.18
  C 118.49 111.86 155.86 87.51 197.76 83.87
  Q 203.73 83.36 217.75 83.35
  Q 504.88 83.33 792.00 83.35
  Q 803.99 83.36 818.27 86.32
  Q 828.27 88.39 837.65 92.23
  Q 880.52 109.74 902.02 149.96
  Z
  M 208.93 166.68
  C 184.68 166.68 166.62 185.46 166.62 209.50
  Q 166.66 491.71 166.65 773.94
  Q 166.65 774.50 167.04 774.10
  Q 214.39 726.60 261.86 679.32
  Q 274.48 666.74 292.49 666.73
  Q 536.24 666.60 783.11 666.82
  Q 795.67 666.83 800.93 665.60
  C 820.32 661.07 833.33 644.27 833.33 624.29
  Q 833.37 418.10 833.32 208.57
  C 833.32 188.08 818.60 170.56 798.72 167.29
  Q 794.27 166.56 779.20 166.57
  Q 498.00 166.72 208.93 166.68
  Z"
/>
<path fill="#007acc" d="
  M 437.34 373.62
  L 624.47 188.53
  A 2.54 2.52 -55.6 0 1 627.23 188.00
  L 738.53 235.32
  Q 739.01 235.52 739.01 236.04
  L 739.01 601.01
  A 1.01 1.01 0.0 0 1 738.39 601.94
  L 626.33 649.55
  A 1.04 1.03 55.9 0 1 625.21 649.33
  L 437.11 463.38
  Q 436.71 462.98 436.25 463.32
  Q 380.23 505.58 327.31 545.36
  Q 325.76 546.54 324.32 547.91
  A 1.48 1.46 -69.6 0 1 323.44 548.32
  Q 321.78 548.50 319.79 547.78
  Q 309.02 543.92 297.47 540.09
  Q 296.52 539.78 295.61 539.51
  Q 290.85 538.13 285.69 536.12
  C 282.70 534.96 279.70 534.43 276.75 533.27
  Q 276.10 533.01 276.60 532.52
  L 391.39 418.97
  A 0.57 0.56 -45.4 0 0 391.39 418.18
  L 276.29 304.42
  A 0.22 0.21 58.0 0 1 276.37 304.06
  L 322.62 288.64
  A 0.71 0.70 53.9 0 1 323.25 288.74
  L 436.03 373.71
  Q 436.72 374.23 437.34 373.62
  Z
  M 625.22 516.14
  A 0.35 0.35 0.0 0 0 625.78 515.86
  L 625.78 321.34
  A 0.35 0.35 0.0 0 0 625.22 321.06
  L 496.05 418.32
  A 0.35 0.35 0.0 0 0 496.05 418.88
  L 625.22 516.14
  Z"
/>
</svg>
