<?xml version="1.0" encoding="UTF-8" standalone="no"?>
<svg xmlns="http://www.w3.org/2000/svg" version="1.2" baseProfile="tiny" viewBox="0.00 0.00 1000.00 1000.00">
<path fill="#007acc" d="
  M 151.87 0.00
  L 853.75 0.00
  Q 899.14 1.97 935.69 27.12
  C 972.42 52.40 997.00 95.27 999.41 140.01
  Q 999.82 147.53 1000.00 149.62
  L 1000.00 654.75
  Q 998.49 687.62 984.44 716.22
  Q 967.73 750.23 936.25 772.55
  Q 897.58 799.97 846.53 799.98
  Q 556.89 800.03 271.89 799.99
  Q 270.78 799.99 269.99 800.77
  Q 179.01 891.70 87.72 983.08
  Q 81.56 989.25 76.26 992.57
  Q 66.14 998.90 52.37 1000.00
  L 47.54 1000.00
  Q 31.72 998.77 20.10 989.89
  Q 1.55 975.73 0.00 951.37
  L 0.00 146.75
  Q 0.41 142.77 0.72 138.76
  Q 3.41 103.59 21.11 73.83
  Q 41.62 39.33 76.64 19.46
  Q 105.93 2.84 140.51 0.70
  Q 146.20 0.34 151.87 0.00
  Z
  M 132.80 103.16
  Q 111.68 111.18 103.49 132.13
  Q 100.01 141.03 100.01 150.55
  Q 99.99 489.61 100.00 828.51
  A 0.37 0.37 0.0 0 0 100.63 828.77
  Q 155.78 773.56 214.10 715.34
  Q 224.41 705.05 238.16 701.56
  Q 244.13 700.05 257.42 700.12
  Q 277.61 700.23 299.00 700.21
  Q 575.88 699.90 841.92 700.27
  C 847.72 700.28 854.79 700.07 860.04 698.99
  C 879.82 694.94 894.65 679.86 898.88 660.18
  Q 900.09 654.55 900.09 644.00
  Q 899.93 390.63 900.09 150.61
  C 900.10 140.49 896.91 129.70 891.06 121.47
  Q 875.85 100.07 848.50 100.07
  Q 501.16 100.05 153.82 100.02
  C 145.89 100.02 139.45 100.63 132.80 103.16
  Z"
/>
<path fill="#007acc" d="
  M 424.31 348.61
  Q 425.73 347.59 427.28 346.06
  Q 537.62 236.84 649.48 126.22
  A 2.85 2.84 -55.8 0 1 652.60 125.62
  L 786.04 182.36
  A 1.21 1.20 -78.6 0 1 786.77 183.47
  L 786.77 621.50
  Q 786.77 622.05 786.27 622.26
  L 651.77 679.41
  A 1.46 1.45 -34.1 0 1 650.18 679.11
  L 424.63 456.12
  A 0.92 0.90 -41.0 0 0 423.45 456.05
  Q 358.88 504.79 293.12 554.20
  Q 291.37 555.51 289.83 557.04
  C 288.37 558.48 286.21 558.17 284.46 557.56
  Q 259.63 548.83 232.12 539.95
  A 0.50 0.50 0.0 0 1 231.93 539.12
  L 369.73 402.78
  A 0.65 0.64 45.3 0 0 369.73 401.85
  L 231.63 265.37
  A 0.27 0.27 0.0 0 1 231.74 264.92
  L 287.00 246.49
  Q 287.59 246.30 288.09 246.67
  L 423.37 348.60
  A 0.80 0.79 -43.9 0 0 424.31 348.61
  Z
  M 650.32 519.45
  A 0.41 0.41 0.0 0 0 650.98 519.12
  L 650.98 285.60
  A 0.41 0.41 0.0 0 0 650.32 285.27
  L 495.24 402.03
  A 0.41 0.41 0.0 0 0 495.24 402.69
  L 650.32 519.45
  Z"
/>
</svg>
